<svg width="50" height="20" xmlns="http://www.w3.org/2000/svg">
 <!-- Created with SVG-edit - http://svg-edit.googlecode.com/ -->
 <g>
  <title>Layer 1</title>
  <path d="m1.60001,3.60001c1,0 1.69344,-0.4588 3,-1c0.92388,-0.38268 1.07612,-0.38268 2,0c1.30656,0.5412 3,2 3,3c0,0 0,1 0,2c0,1 0,2 0,2c-1,0 -2,0 -3,0c-1,0 -1,0 -2,0c-1,0 -2,0 -3,0c0,0 -0.70711,-1.29289 0,-2c0.70711,-0.70711 2,-1 3,-1c1,0 1,-1 2,-1c0,0 1,0 2,0c1,0 1.29289,-0.29289 2,-1c0.70711,-0.70711 3,0 3,0c1,0 2,0 3,0c1,0 1,0 2,0c1,0 1.29289,0.29289 2,1c0.70711,0.70711 0.29289,1.29289 1,2c0.70711,0.70711 0,2 0,2c-1,1 -2,1 -3,1c-1,0 -1,-1 -1,-1c-1,0 -1,0 -1,-1c0,-1 0,-2 0,-3c0,0 0.29289,-0.29289 1,-1c0.70711,-0.70711 0,-1 1,-1c1,0 1.29289,-0.29289 2,-1c0.70711,-0.70711 1,0 2,0c1,0 2,0 3,0c0,0 1,0 2,0c1,0 2,1 2,1c1,0 1,1 2,1c1,0 1,1 2,1c0,0 1.29289,0.29289 2,1c0.70711,0.70711 0,2 0,3c0,0 -1,0 -2,0c0,0 -1,0 -2,0c-1,0 -2,0 -2,0c0,0 0,-1 0,-2c0,-1 1.29289,-0.29289 2,-1c0.70711,-0.70711 1,-1 1,-1c1,0 1,0 2,0c1,0 2,0 3,0c0,0 1,0 2,0c1,0 2,0 2,0c1,0 2,0 3,0c0,0 1,0 1,1c0,1 0,2 0,3c0,0 -0.07612,0.61732 -1,1c-1.30656,0.5412 -2,1 -3,1c0,0 -1,0 -1,-1c0,-1 0,-1 0,-2c0,-1 -0.70711,-2.29289 0,-3c0.70711,-0.70711 1.07612,0.38268 2,0c1.30656,-0.5412 2.07612,-0.61732 3,-1c1.30656,-0.5412 2,-1 3,-1c1,0 1,0 2,0c1,0 2,0 3,0c0,0 1,0 2,0c1,0 2,0 2,0c0,1 1,1 1,2c0,0 0,1 0,2c0,1 0,2 -1,2c0,0 -1,0 -2,0c-1,0 -2,0 -2,0c0,-1 -1,-1 -1,-2c0,-1 0,-2 0,-2c0,-1 0,-2 1,-2c0,0 1,0 2,0c1,0 2,0 2,0c1,0 2,0 3,0c1,0 1,0 2,0c1,0 2,0 3,0l0,0" id="svg_8" stroke-linecap="null" stroke-linejoin="null" stroke-dasharray="null" stroke-width="2" stroke="#bf00bf" fill="none"/>
 </g>
</svg>