<svg width="640" height="480" xmlns="http://www.w3.org/2000/svg">
 <!-- Created with SVG-edit - http://svg-edit.googlecode.com/ -->
 <g>
  <title>Layer 1</title>
  <path d="m12.60001,18.60001c-1,0 -2,0 -3,0c0,0 -1.02675,0.22975 -2,0c-2.17625,-0.51374 -2,-1 -2,-1c-2,-1 -3.29289,-1.29289 -4,-2c-0.70711,-0.70711 0,-1 0,-2c0,0 0,-1 0,-2c0,-1 0,-2 0,-2c0,-1 0,-2 0,-2c1,0 1.29289,-0.29289 2,-1c0.70711,-0.70711 1,-1 2,-1c0,0 0,0 1,0c1,0 2,0 3,0c0,0 1,0 2,0c1,0 2,0 2,0c1,0 2,0 3,0c1,0 1,0 2,0c1,0 2,0 3,0c0,0 0.29289,-0.70711 1,0c0.70711,0.70711 -0.70711,2.29289 0,3c0.70711,0.70711 1,1 1,1c1,1 1,2 1,3c0,1 0,1 0,2c0,1 -0.69344,1.4588 -2,2c-0.92388,0.38268 -1,1 -1,1c0,0 -0.29289,0.29289 -1,1c-0.70711,0.70711 0,2 -1,2c-1,0 -1,1 -2,1c0,0 0.70711,0.29289 0,1c-0.70711,0.70711 -0.29289,1.29289 -1,2c-0.70711,0.70711 -1,1 -1,1c-1,0 -1,1 -1,2c0,1 0,2 0,2c0,1 0,2 0,3c0,1 0,1 0,2c0,1 0,2 0,3l-1,0l0,0" id="svg_16" stroke-linecap="null" stroke-linejoin="null" stroke-dasharray="null" stroke-width="3" stroke="#bf00bf" fill="none"/>
 </g>
</svg>